<svg width="125" height="65" viewBox="0 0 125 65" fill="none" xmlns="http://www.w3.org/2000/svg">
<path d="M0.280029 49V35H6.32003C7.88003 35 9.0867 35.3133 9.94003 35.94C10.8067 36.5667 11.24 37.4533 11.24 38.6C11.24 39.36 11.06 40 10.7 40.52C10.3534 41.04 9.87336 41.4333 9.26003 41.7C8.66003 41.9667 8.00003 42.1 7.28003 42.1L7.62003 41.62C8.51336 41.62 9.28003 41.76 9.92003 42.04C10.5734 42.3067 11.08 42.7133 11.44 43.26C11.8 43.7933 11.98 44.46 11.98 45.26C11.98 46.4467 11.54 47.3667 10.66 48.02C9.79336 48.6733 8.48003 49 6.72003 49H0.280029ZM1.76003 47.78H6.70003C7.9267 47.78 8.8667 47.5733 9.52003 47.16C10.1734 46.7333 10.5 46.06 10.5 45.14C10.5 44.2333 10.1734 43.5733 9.52003 43.16C8.8667 42.7333 7.9267 42.52 6.70003 42.52H1.60003V41.3H6.22003C7.34003 41.3 8.2067 41.0867 8.82003 40.66C9.4467 40.2333 9.76003 39.6 9.76003 38.76C9.76003 37.9067 9.4467 37.2733 8.82003 36.86C8.2067 36.4333 7.34003 36.22 6.22003 36.22H1.76003V47.78Z" fill="#00ADB5"/>
<path d="M15.3582 49V35H20.5982C21.7848 35 22.8048 35.1933 23.6582 35.58C24.5115 35.9533 25.1648 36.5 25.6182 37.22C26.0848 37.9267 26.3182 38.7867 26.3182 39.8C26.3182 40.7867 26.0848 41.64 25.6182 42.36C25.1648 43.0667 24.5115 43.6133 23.6582 44C22.8048 44.3733 21.7848 44.56 20.5982 44.56H16.1782L16.8382 43.88V49H15.3582ZM24.9182 49L21.3182 43.92H22.9182L26.5382 49H24.9182ZM16.8382 44L16.1782 43.3H20.5582C21.9582 43.3 23.0182 42.9933 23.7382 42.38C24.4715 41.7667 24.8382 40.9067 24.8382 39.8C24.8382 38.68 24.4715 37.8133 23.7382 37.2C23.0182 36.5867 21.9582 36.28 20.5582 36.28H16.1782L16.8382 35.58V44Z" fill="#00ADB5"/>
<path d="M27.5713 49L33.9713 35H35.4313L41.8313 49H40.2713L34.3913 35.86H34.9913L29.1113 49H27.5713ZM30.0913 45.26L30.5313 44.06H38.6713L39.1113 45.26H30.0913Z" fill="#00ADB5"/>
<path d="M44.1472 49V35H45.6272V49H44.1472Z" fill="#00ADB5"/>
<path d="M50.1824 49V35H51.4024L61.0624 47.16H60.4224V35H61.8824V49H60.6624L51.0224 36.84H51.6624V49H50.1824Z" fill="#00ADB5"/>
<path d="M77.7663 49.12C76.7129 49.12 75.7396 48.9467 74.8463 48.6C73.9529 48.24 73.1796 47.74 72.5263 47.1C71.8729 46.46 71.3596 45.7067 70.9863 44.84C70.6263 43.9733 70.4463 43.0267 70.4463 42C70.4463 40.9733 70.6263 40.0267 70.9863 39.16C71.3596 38.2933 71.8729 37.54 72.5263 36.9C73.1929 36.26 73.9729 35.7667 74.8663 35.42C75.7596 35.06 76.7329 34.88 77.7863 34.88C78.7996 34.88 79.7529 35.0533 80.6463 35.4C81.5396 35.7333 82.2929 36.24 82.9063 36.92L81.9663 37.86C81.3929 37.2733 80.7596 36.8533 80.0663 36.6C79.3729 36.3333 78.6263 36.2 77.8263 36.2C76.9863 36.2 76.2063 36.3467 75.4863 36.64C74.7663 36.92 74.1396 37.3267 73.6063 37.86C73.0729 38.38 72.6529 38.9933 72.3463 39.7C72.0529 40.3933 71.9063 41.16 71.9063 42C71.9063 42.84 72.0529 43.6133 72.3463 44.32C72.6529 45.0133 73.0729 45.6267 73.6063 46.16C74.1396 46.68 74.7663 47.0867 75.4863 47.38C76.2063 47.66 76.9863 47.8 77.8263 47.8C78.6263 47.8 79.3729 47.6667 80.0663 47.4C80.7596 47.1333 81.3929 46.7067 81.9663 46.12L82.9063 47.06C82.2929 47.74 81.5396 48.2533 80.6463 48.6C79.7529 48.9467 78.7929 49.12 77.7663 49.12Z" fill="#00ADB5"/>
<path d="M83.4697 49L89.8697 35H91.3297L97.7297 49H96.1697L90.2897 35.86H90.8897L85.0097 49H83.4697ZM85.9897 45.26L86.4297 44.06H94.5697L95.0097 45.26H85.9897Z" fill="#00ADB5"/>
<path d="M100.046 49V35H105.286C106.472 35 107.492 35.1933 108.346 35.58C109.199 35.9533 109.852 36.5 110.306 37.22C110.772 37.9267 111.006 38.7867 111.006 39.8C111.006 40.7867 110.772 41.64 110.306 42.36C109.852 43.0667 109.199 43.6133 108.346 44C107.492 44.3733 106.472 44.56 105.286 44.56H100.866L101.526 43.88V49H100.046ZM109.606 49L106.006 43.92H107.606L111.226 49H109.606ZM101.526 44L100.866 43.3H105.246C106.646 43.3 107.706 42.9933 108.426 42.38C109.159 41.7667 109.526 40.9067 109.526 39.8C109.526 38.68 109.159 37.8133 108.426 37.2C107.706 36.5867 106.646 36.28 105.246 36.28H100.866L101.526 35.58V44Z" fill="#00ADB5"/>
<path d="M115.819 41.26H123.219V42.52H115.819V41.26ZM115.979 47.72H124.399V49H114.499V35H124.099V36.28H115.979V47.72Z" fill="#00ADB5"/>
<path d="M31.22 64V57H33.73C34.3167 57 34.82 57.0933 35.24 57.28C35.66 57.4667 35.9834 57.7367 36.21 58.09C36.4367 58.4367 36.55 58.86 36.55 59.36C36.55 59.8467 36.4367 60.2667 36.21 60.62C35.9834 60.9733 35.66 61.2433 35.24 61.43C34.82 61.6167 34.3167 61.71 33.73 61.71H31.5L31.73 61.47V64H31.22ZM31.73 61.5L31.5 61.25H33.73C34.4834 61.25 35.0534 61.0867 35.44 60.76C35.8334 60.4267 36.03 59.96 36.03 59.36C36.03 58.7533 35.8334 58.2867 35.44 57.96C35.0534 57.6267 34.4834 57.46 33.73 57.46H31.5L31.73 57.21V61.5Z" fill="#00ADB5"/>
<path d="M40.2085 64.05C39.6885 64.05 39.1951 63.9633 38.7285 63.79C38.2685 63.61 37.9118 63.38 37.6585 63.1L37.8885 62.72C38.1285 62.9667 38.4551 63.1767 38.8685 63.35C39.2885 63.5167 39.7318 63.6 40.1985 63.6C40.6651 63.6 41.0451 63.54 41.3385 63.42C41.6385 63.2933 41.8585 63.1267 41.9985 62.92C42.1451 62.7133 42.2185 62.4833 42.2185 62.23C42.2185 61.93 42.1385 61.69 41.9785 61.51C41.8185 61.33 41.6085 61.1867 41.3485 61.08C41.0885 60.9733 40.8051 60.8833 40.4985 60.81C40.1918 60.7367 39.8818 60.66 39.5685 60.58C39.2551 60.4933 38.9685 60.3833 38.7085 60.25C38.4485 60.1167 38.2385 59.9367 38.0785 59.71C37.9251 59.4767 37.8485 59.1767 37.8485 58.81C37.8485 58.4767 37.9351 58.17 38.1085 57.89C38.2818 57.61 38.5518 57.3833 38.9185 57.21C39.2851 57.0367 39.7551 56.95 40.3285 56.95C40.7151 56.95 41.0951 57.0067 41.4685 57.12C41.8485 57.2333 42.1718 57.3867 42.4385 57.58L42.2485 57.99C41.9551 57.79 41.6385 57.6433 41.2985 57.55C40.9651 57.45 40.6418 57.4 40.3285 57.4C39.8818 57.4 39.5118 57.4633 39.2185 57.59C38.9251 57.7167 38.7085 57.8867 38.5685 58.1C38.4285 58.3067 38.3585 58.54 38.3585 58.8C38.3585 59.1 38.4351 59.34 38.5885 59.52C38.7485 59.7 38.9585 59.8433 39.2185 59.95C39.4785 60.0567 39.7651 60.1467 40.0785 60.22C40.3918 60.2933 40.7018 60.3733 41.0085 60.46C41.3151 60.54 41.5985 60.6467 41.8585 60.78C42.1185 60.9133 42.3285 61.0933 42.4885 61.32C42.6485 61.5467 42.7285 61.84 42.7285 62.2C42.7285 62.5267 42.6385 62.8333 42.4585 63.12C42.2785 63.4 42.0018 63.6267 41.6285 63.8C41.2618 63.9667 40.7885 64.05 40.2085 64.05Z" fill="#00ADB5"/>
<path d="M44.4622 64V57H44.9722V64H44.4622Z" fill="#00ADB5"/>
<path d="M50.3714 64.05C49.8514 64.05 49.3681 63.9633 48.9214 63.79C48.4814 63.61 48.0981 63.36 47.7714 63.04C47.4448 62.72 47.1914 62.3467 47.0114 61.92C46.8314 61.4867 46.7414 61.0133 46.7414 60.5C46.7414 59.9867 46.8314 59.5167 47.0114 59.09C47.1914 58.6567 47.4448 58.28 47.7714 57.96C48.1048 57.64 48.4914 57.3933 48.9314 57.22C49.3714 57.04 49.8514 56.95 50.3714 56.95C50.8648 56.95 51.3248 57.03 51.7514 57.19C52.1848 57.35 52.5548 57.5933 52.8614 57.92L52.5414 58.25C52.2414 57.9567 51.9081 57.7467 51.5414 57.62C51.1814 57.4867 50.7981 57.42 50.3914 57.42C49.9448 57.42 49.5281 57.4967 49.1414 57.65C48.7614 57.8033 48.4281 58.02 48.1414 58.3C47.8614 58.58 47.6414 58.9067 47.4814 59.28C47.3281 59.6533 47.2514 60.06 47.2514 60.5C47.2514 60.94 47.3281 61.3467 47.4814 61.72C47.6414 62.0933 47.8614 62.42 48.1414 62.7C48.4281 62.98 48.7614 63.1967 49.1414 63.35C49.5281 63.5033 49.9448 63.58 50.3914 63.58C50.7981 63.58 51.1814 63.5167 51.5414 63.39C51.9081 63.2567 52.2414 63.04 52.5414 62.74L52.8614 63.07C52.5548 63.3967 52.1848 63.6433 51.7514 63.81C51.3248 63.97 50.8648 64.05 50.3714 64.05Z" fill="#00ADB5"/>
<path d="M57.3932 64.05C56.8732 64.05 56.3898 63.9633 55.9432 63.79C55.5032 63.61 55.1165 63.36 54.7832 63.04C54.4565 62.7133 54.2032 62.3367 54.0232 61.91C53.8432 61.4767 53.7532 61.0067 53.7532 60.5C53.7532 59.9933 53.8432 59.5267 54.0232 59.1C54.2032 58.6667 54.4565 58.29 54.7832 57.97C55.1165 57.6433 55.5032 57.3933 55.9432 57.22C56.3898 57.04 56.8732 56.95 57.3932 56.95C57.9132 56.95 58.3932 57.04 58.8332 57.22C59.2798 57.3933 59.6665 57.64 59.9932 57.96C60.3198 58.28 60.5732 58.6567 60.7532 59.09C60.9398 59.5167 61.0332 59.9867 61.0332 60.5C61.0332 61.0133 60.9398 61.4867 60.7532 61.92C60.5732 62.3467 60.3198 62.72 59.9932 63.04C59.6665 63.36 59.2798 63.61 58.8332 63.79C58.3932 63.9633 57.9132 64.05 57.3932 64.05ZM57.3932 63.58C57.8398 63.58 58.2532 63.5033 58.6332 63.35C59.0132 63.1967 59.3432 62.98 59.6232 62.7C59.9032 62.42 60.1198 62.0933 60.2732 61.72C60.4332 61.3467 60.5132 60.94 60.5132 60.5C60.5132 60.0533 60.4332 59.6467 60.2732 59.28C60.1198 58.9067 59.9032 58.58 59.6232 58.3C59.3432 58.02 59.0132 57.8033 58.6332 57.65C58.2532 57.4967 57.8398 57.42 57.3932 57.42C56.9465 57.42 56.5332 57.4967 56.1532 57.65C55.7732 57.8033 55.4398 58.02 55.1532 58.3C54.8732 58.58 54.6532 58.9067 54.4932 59.28C54.3398 59.6467 54.2632 60.0533 54.2632 60.5C54.2632 60.94 54.3398 61.3467 54.4932 61.72C54.6532 62.0933 54.8732 62.42 55.1532 62.7C55.4398 62.98 55.7732 63.1967 56.1532 63.35C56.5332 63.5033 56.9465 63.58 57.3932 63.58Z" fill="#00ADB5"/>
<path d="M62.8021 64V57H63.3121V63.54H67.3421V64H62.8021Z" fill="#00ADB5"/>
<path d="M71.485 64.05C70.965 64.05 70.4816 63.9633 70.035 63.79C69.595 63.61 69.2083 63.36 68.875 63.04C68.5483 62.7133 68.295 62.3367 68.115 61.91C67.935 61.4767 67.8449 61.0067 67.8449 60.5C67.8449 59.9933 67.935 59.5267 68.115 59.1C68.295 58.6667 68.5483 58.29 68.875 57.97C69.2083 57.6433 69.595 57.3933 70.035 57.22C70.4816 57.04 70.965 56.95 71.485 56.95C72.005 56.95 72.4849 57.04 72.9249 57.22C73.3716 57.3933 73.7583 57.64 74.085 57.96C74.4116 58.28 74.6649 58.6567 74.8449 59.09C75.0316 59.5167 75.125 59.9867 75.125 60.5C75.125 61.0133 75.0316 61.4867 74.8449 61.92C74.6649 62.3467 74.4116 62.72 74.085 63.04C73.7583 63.36 73.3716 63.61 72.9249 63.79C72.4849 63.9633 72.005 64.05 71.485 64.05ZM71.485 63.58C71.9316 63.58 72.345 63.5033 72.725 63.35C73.105 63.1967 73.435 62.98 73.715 62.7C73.995 62.42 74.2116 62.0933 74.365 61.72C74.525 61.3467 74.6049 60.94 74.6049 60.5C74.6049 60.0533 74.525 59.6467 74.365 59.28C74.2116 58.9067 73.995 58.58 73.715 58.3C73.435 58.02 73.105 57.8033 72.725 57.65C72.345 57.4967 71.9316 57.42 71.485 57.42C71.0383 57.42 70.6249 57.4967 70.2449 57.65C69.8649 57.8033 69.5316 58.02 69.2449 58.3C68.9649 58.58 68.745 58.9067 68.585 59.28C68.4316 59.6467 68.3549 60.0533 68.3549 60.5C68.3549 60.94 68.4316 61.3467 68.585 61.72C68.745 62.0933 68.9649 62.42 69.2449 62.7C69.5316 62.98 69.8649 63.1967 70.2449 63.35C70.6249 63.5033 71.0383 63.58 71.485 63.58Z" fill="#00ADB5"/>
<path d="M79.8839 64.05C79.3572 64.05 78.8705 63.9633 78.4239 63.79C77.9772 63.61 77.5872 63.36 77.2539 63.04C76.9272 62.72 76.6739 62.3467 76.4939 61.92C76.3139 61.4867 76.2239 61.0133 76.2239 60.5C76.2239 59.9867 76.3139 59.5167 76.4939 59.09C76.6739 58.6567 76.9305 58.28 77.2639 57.96C77.5972 57.64 77.9839 57.3933 78.4239 57.22C78.8705 57.04 79.3605 56.95 79.8939 56.95C80.4005 56.95 80.8705 57.03 81.3039 57.19C81.7372 57.35 82.1072 57.59 82.4139 57.91L82.0939 58.25C81.7872 57.95 81.4505 57.7367 81.0839 57.61C80.7239 57.4833 80.3305 57.42 79.9039 57.42C79.4505 57.42 79.0305 57.4967 78.6439 57.65C78.2572 57.8033 77.9205 58.02 77.6339 58.3C77.3472 58.58 77.1239 58.9067 76.9639 59.28C76.8105 59.6533 76.7339 60.06 76.7339 60.5C76.7339 60.94 76.8105 61.3467 76.9639 61.72C77.1239 62.0933 77.3472 62.42 77.6339 62.7C77.9205 62.98 78.2572 63.1967 78.6439 63.35C79.0305 63.5033 79.4505 63.58 79.9039 63.58C80.3172 63.58 80.7072 63.5167 81.0739 63.39C81.4472 63.2633 81.7872 63.0533 82.0939 62.76L82.3839 63.15C82.0705 63.45 81.6939 63.6767 81.2539 63.83C80.8205 63.9767 80.3639 64.05 79.8839 64.05ZM81.8939 63.1V60.53H82.3839V63.15L81.8939 63.1Z" fill="#00ADB5"/>
<path d="M84.6282 64V57H85.1382V64H84.6282Z" fill="#00ADB5"/>
<path d="M86.4074 64L89.6274 57H90.1375L93.3575 64H92.8074L89.7674 57.32H89.9874L86.9575 64H86.4074ZM87.5874 62.03L87.7575 61.6H91.9474L92.1175 62.03H87.5874Z" fill="#00ADB5"/>
<path d="M59.9894 22.831C59.9629 23.0866 59.7342 23.2724 59.4786 23.2458C58.8258 23.1777 58.1772 23.4076 57.7129 23.8717C57.2489 24.3359 57.019 24.9848 57.0873 25.6374C57.1136 25.8928 56.9279 26.1213 56.6725 26.148C56.6558 26.148 56.6407 26.1506 56.6238 26.1506C56.3859 26.1502 56.1863 25.9704 56.1615 25.7338C56.0647 24.8259 56.3739 23.9219 57.0063 23.2634C57.3667 22.6344 57.4577 21.8866 57.2587 21.1894C57.0598 20.4925 56.5876 19.9051 55.9494 19.5612C55.7233 19.4392 55.6389 19.1571 55.7607 18.9309C55.8825 18.7048 56.1649 18.6202 56.391 18.7422C57.0478 19.0951 57.5794 19.6429 57.9121 20.3101C58.2451 20.9773 58.3633 21.7314 58.2504 22.4683C58.676 22.3238 59.128 22.2732 59.5749 22.3204C59.6976 22.333 59.8102 22.3939 59.888 22.4897C59.9656 22.5856 60.0022 22.7083 59.9894 22.831ZM74.75 14.7022C74.6816 15.5864 74.395 16.44 73.9165 17.1867C74.5449 18.3913 74.5209 19.832 73.8526 21.0148C73.1845 22.1975 71.9629 22.9616 70.6068 23.0449C70.9682 24.0597 70.8968 25.1783 70.4093 26.1388C69.9218 27.0993 69.0609 27.8172 68.0286 28.1246C67.7245 28.7076 67.2619 29.1927 66.6938 29.5243C66.126 29.8557 65.476 30.0199 64.8188 29.9981C64.6342 29.9981 64.4499 29.9855 64.2672 29.96C63.3157 29.8547 62.4514 29.3571 61.8824 28.5873C61.3137 29.3567 60.45 29.854 59.4992 29.9596C58.1439 30.1483 56.4903 29.6469 55.7363 28.1241C54.7041 27.8168 53.8431 27.0989 53.3556 26.1384C52.8681 25.1779 52.7967 24.0595 53.1581 23.0447C51.8025 22.9609 50.5812 22.1967 49.9134 21.0141C49.2455 19.8314 49.2215 18.3909 49.8499 17.1867C49.0364 15.9168 48.7932 14.3638 49.1796 12.906C49.566 11.4482 50.5466 10.2195 51.8824 9.51916C51.8698 9.33985 51.877 9.15946 51.9044 8.98185C51.9749 8.52577 52.173 8.09894 52.4761 7.75079C52.7789 7.40264 53.1741 7.14725 53.6161 7.01408C53.29 5.81634 53.4904 4.53658 54.1675 3.49593C54.8444 2.45549 55.9333 1.75341 57.1603 1.5664C57.6463 0.79827 58.4223 0.259449 59.3116 0.0726568C60.2012 -0.114355 61.1283 0.0666723 61.8823 0.574272C62.6363 0.0662444 63.5639 -0.115011 64.4539 0.0718033C65.3436 0.258601 66.1201 0.797854 66.6059 1.56636C67.8326 1.7538 68.9211 2.45612 69.5978 3.4965C70.2745 4.53688 70.4747 5.81669 70.1486 7.01399C70.5906 7.14714 70.986 7.40233 71.2888 7.75049C71.5919 8.09886 71.79 8.52567 71.8607 8.98177C71.8879 9.15937 71.8954 9.33976 71.8827 9.51907C72.8138 10.0096 73.581 10.7615 74.0903 11.6824C74.5999 12.6031 74.8293 13.6528 74.75 14.7022ZM64.4201 10.8369C63.3029 11.158 62.5647 12.2646 62.344 13.9528C62.314 14.1847 62.1166 14.3585 61.8827 14.3585C61.6489 14.3585 61.4514 14.1849 61.4215 13.953C61.2007 12.2646 60.464 11.1582 59.3454 10.8372C59.1253 10.7752 58.8977 10.7438 58.6692 10.7444C57.7271 10.7664 56.8417 11.1994 56.2458 11.9293C55.4402 12.9069 55.34 14.1768 55.9722 15.4121C56.3428 16.1382 57.1554 16.7526 58.096 17.4669C59.2711 18.3579 60.7038 19.4439 61.8828 21.1915C63.0617 19.4439 64.4945 18.3579 65.6695 17.4669C66.6101 16.7539 67.4227 16.1382 67.7933 15.4121C68.4249 14.1753 68.3253 12.9054 67.5198 11.9277C66.7422 10.9854 65.4675 10.5365 64.4201 10.8369ZM61.4177 27.2883V22.1954C60.2772 20.2901 58.8213 19.1857 57.5339 18.2096C56.5024 17.4276 55.6112 16.7522 55.1435 15.8366C55.0217 15.599 54.9189 15.3521 54.8362 15.0982C54.1737 14.7137 53.3728 14.65 52.6577 14.9247C52.5423 14.9698 52.4134 14.967 52.3001 14.9168C52.1869 14.8665 52.0982 14.7731 52.0539 14.6575C52.0097 14.5417 52.0135 14.413 52.0646 14.2999C52.1155 14.1871 52.2095 14.099 52.3258 14.0559C53.0644 13.7723 53.8781 13.7507 54.6306 13.9947C54.5823 13.0272 54.9033 12.0774 55.5289 11.3377C56.1966 10.5206 57.1487 9.98658 58.1943 9.84296C58.2802 9.70874 58.3535 9.56682 58.4133 9.41914C58.6061 8.94446 58.6519 8.42275 58.5446 7.92179C57.9036 8.17185 57.1975 8.20156 56.5377 8.00643C56.2915 7.93376 56.1506 7.67515 56.2233 7.42871C56.2959 7.18249 56.5548 7.04165 56.801 7.11431C57.3998 7.29128 58.046 7.2028 58.5749 6.87088C59.1039 6.53918 59.4649 5.99612 59.5662 5.37993C59.6081 5.12646 59.8474 4.95484 60.1009 4.99673C60.3544 5.0384 60.526 5.27777 60.4841 5.53125C60.3606 6.27995 59.9671 6.95742 59.3783 7.43594C59.6136 8.20128 59.5775 9.02412 59.2761 9.76598C59.2633 9.79783 59.2503 9.82989 59.2366 9.85981C60.1225 10.0071 60.9103 10.5084 61.4188 11.2488V1.38449C60.8115 0.948058 60.037 0.815739 59.3196 1.02607C58.6019 1.23616 58.0212 1.76536 57.7454 2.46039C57.4697 3.15542 57.5296 3.93875 57.9079 4.58377C58.0376 4.80541 57.9632 5.0903 57.7416 5.22026C57.52 5.34999 57.2351 5.27561 57.1051 5.05398C56.6749 4.32306 56.5381 3.45617 56.7221 2.62819C55.8206 2.93168 55.0858 3.59679 54.6947 4.46411C54.3034 5.33121 54.2908 6.32224 54.6596 7.19892C54.7188 7.33934 54.7054 7.49984 54.6237 7.62851C54.5423 7.75717 54.4027 7.83775 54.2506 7.84394C53.7812 7.86403 53.348 8.10169 53.0787 8.48661C52.8094 8.87153 52.7348 9.36012 52.877 9.80784C53.0191 10.2556 53.3617 10.6115 53.8037 10.7707C54.0364 10.8639 54.1538 11.1246 54.0689 11.3603C53.9839 11.5963 53.7274 11.7226 53.4887 11.6459C52.8999 11.4332 52.4156 11.0021 52.1358 10.442C51.1193 11.0372 50.3796 12.0105 50.0784 13.1492C49.7773 14.2881 49.9391 15.4997 50.5288 16.5197C51.1182 17.5396 52.0877 18.2844 53.2247 18.5917C53.4497 18.6529 53.5946 18.8711 53.5641 19.1021C53.5335 19.3331 53.3365 19.5058 53.1035 19.5063C53.0625 19.506 53.0214 19.5007 52.9819 19.49C52.0362 19.234 51.1785 18.7245 50.5014 18.0164C50.1425 19.032 50.3402 20.1611 51.0227 20.9944C51.7053 21.8277 52.7735 22.2439 53.8398 22.0921C54.0178 22.0669 54.1943 22.1468 54.2931 22.2968C54.3918 22.4471 54.3952 22.6407 54.3018 22.7942C53.7994 23.6147 53.7214 24.6266 54.0922 25.5145C54.463 26.4023 55.2375 27.0582 56.1745 27.2775C56.3203 27.3117 56.4408 27.4139 56.4981 27.5524C57.0433 28.8681 58.3866 29.1744 59.3706 29.0374C60.2297 28.919 61.2764 28.3888 61.4177 27.2883ZM73.2648 18.0159C72.5877 18.724 71.73 19.2335 70.7843 19.4896C70.7448 19.5003 70.7037 19.5056 70.6627 19.5058C70.4297 19.5054 70.2327 19.3327 70.2021 19.1017C70.1716 18.8706 70.3165 18.6524 70.5415 18.5913C71.6785 18.284 72.648 17.5392 73.2374 16.5192C73.8271 15.4993 73.9889 14.2877 73.6878 13.1488C73.3866 12.0101 72.6469 11.0367 71.6304 10.4415C71.3506 11.0021 70.8659 11.4334 70.2769 11.6461C70.0371 11.726 69.7774 11.5999 69.692 11.3621C69.6065 11.1244 69.7262 10.8617 69.9619 10.7707C70.4039 10.6114 70.7465 10.2554 70.8886 9.8076C71.0308 9.35984 70.9562 8.8715 70.6869 8.48654C70.4176 8.1014 69.9843 7.86395 69.515 7.84387C69.3628 7.83746 69.2233 7.75688 69.1419 7.62843C69.0602 7.49977 69.0467 7.33926 69.1059 7.19884C69.4753 6.32173 69.4626 5.33064 69.0711 4.46316C68.6798 3.59584 67.9448 2.93074 67.0429 2.62746C67.2269 3.45522 67.0901 4.32232 66.6599 5.05303C66.5299 5.27466 66.245 5.34925 66.0234 5.21931C65.8018 5.08957 65.7274 4.80468 65.8571 4.58304C66.2354 3.93802 66.2952 3.15474 66.0195 2.45966C65.7438 1.76463 65.1632 1.23544 64.4454 1.02512C63.728 0.815028 62.9534 0.947107 62.3462 1.38354V11.2495C62.7854 10.6203 63.4257 10.1595 64.1616 9.94322C64.2824 9.90881 64.4046 9.88124 64.5284 9.86072C64.5147 9.82888 64.5017 9.79682 64.4888 9.76647C64.1875 9.02461 64.1514 8.20198 64.3867 7.43665C63.7979 6.95811 63.4044 6.2806 63.2809 5.53195C63.239 5.27847 63.4106 5.0391 63.6641 4.99743C63.9175 4.95554 64.1569 5.12716 64.1988 5.38064C64.3003 5.99704 64.6617 6.54007 65.1909 6.8718C65.7203 7.20329 66.3666 7.29156 66.9655 7.11417C67.2124 7.04129 67.4714 7.18256 67.5441 7.4292C67.6167 7.67605 67.4757 7.93509 67.2288 8.00774C66.569 8.20287 65.8631 8.17316 65.2219 7.92311C65.1146 8.42407 65.1604 8.94576 65.3531 9.42024C65.413 9.56813 65.4865 9.71005 65.5724 9.84427C66.6177 9.98789 67.5701 10.522 68.2378 11.339C68.8634 12.0788 69.1844 13.0286 69.1359 13.9961C69.8886 13.752 70.7023 13.7736 71.4409 14.0572C71.557 14.1004 71.651 14.1884 71.7021 14.3013C71.7532 14.4143 71.757 14.543 71.7128 14.6588C71.6685 14.7744 71.5798 14.8678 71.4663 14.9181C71.3531 14.9681 71.2244 14.9711 71.109 14.9258C70.3941 14.6513 69.5933 14.715 68.9307 15.0991C68.848 15.353 68.7452 15.6001 68.6234 15.8377C68.1558 16.7533 67.2647 17.4287 66.2331 18.2107C64.9456 19.1868 63.4882 20.2911 62.3493 22.1965V27.2883C62.4908 28.3887 63.5372 28.9192 64.3957 29.0389C65.3799 29.1759 66.7234 28.8692 67.2681 27.5539C67.3254 27.4154 67.446 27.3133 67.5917 27.2791C68.5287 27.0598 69.3032 26.4039 69.6741 25.516C70.0449 24.6282 69.9669 23.6162 69.4644 22.7957C69.371 22.6422 69.3744 22.4486 69.4732 22.2984C69.5719 22.1483 69.7484 22.0684 69.9265 22.0936C70.9934 22.246 72.0622 21.8295 72.7449 20.9957C73.4277 20.1618 73.6247 19.0317 73.2648 18.0159ZM67.3743 18.7411C66.7173 19.0942 66.1856 19.6422 65.8528 20.3096C65.5198 20.9773 65.4016 21.7315 65.5149 22.4689C65.0894 22.324 64.6374 22.2734 64.1905 22.3206C63.9348 22.3469 63.7491 22.5756 63.7754 22.8312C63.8019 23.0868 64.0306 23.2725 64.2862 23.246C64.9389 23.1778 65.5876 23.4078 66.0518 23.8718C66.5158 24.336 66.7458 24.9849 66.6774 25.6376C66.6511 25.893 66.8368 26.1215 67.0922 26.1482C67.1089 26.1482 67.1241 26.1508 67.141 26.1508C67.3789 26.1503 67.5785 25.9706 67.6033 25.734C67.7001 24.8263 67.3913 23.9223 66.759 23.2636C66.3987 22.6346 66.3076 21.8867 66.5066 21.1896C66.7056 20.4926 67.1777 19.9053 67.8159 19.5614C68.042 19.4394 68.1265 19.1573 68.0046 18.9311C67.8828 18.705 67.6005 18.6204 67.3743 18.7424L67.3743 18.7411Z" fill="#00ADB5"/>
</svg>
